<svg id="Capa_1" data-name="Capa 1" xmlns="http://www.w3.org/2000/svg" xmlns:xlink="http://www.w3.org/1999/xlink" viewBox="0 0 387.02 545.03"><defs><clipPath id="clip-path"><rect x="-208.25" y="-296.86" width="595.28" height="841.89" fill="none"/></clipPath></defs><g clip-path="url(#clip-path)"><polygon points="327.3 301.51 387.02 434.36 387.02 274.66 327.3 301.51" fill="#033045"/><polygon points="134.67 388.1 205.21 545.03 220.69 545.03 376.93 474.79 303.78 312.08 134.67 388.1" fill="#033045"/><g clip-path="url(#clip-path)"><path d="M497.57,196.67l.11,0L525.74,184l-28.3-63-209,94L316.72,278Z" fill="#033045"/><path d="M293.2,288.54,264.9,225.6l-209,94,28.3,63,28.11-12.63,0,0Z" fill="#033045"/><path d="M349.89,64.85c5.32,27.23-33,78.28-67.44,114.56-1.64-48.29,3.17-109.32,23.42-128.58A26.72,26.72,0,0,1,308,49c4-3.06,10.89-6.52,24.45-1.37s16.43,12.32,17.4,17.25m-238.12,107c-3-4-6.51-10.89-1.35-24.45,2.28-6,5-9.92,7.67-12.49a18.33,18.33,0,0,1,9.58-4.89c27.22-5.33,78.27,33,114.53,67.43-50,1.67-113.61-3.54-130.43-25.6M341.66,23.5c-23.6-9-39.82-2.25-49.26,5C258.54,54,255.28,130.14,256.56,175.65c-33.18-31.1-92.2-79-133.83-70.89-11.69,2.28-27.48,10-36.41,33.53s-2.25,39.79,5,49.24c20.41,26.76,72.49,34.36,115.86,35.76l50.64-22.76,16.61-7.47L325,170.3c27.74-33.37,56.62-77.37,50.17-110.4-2.28-11.66-9.95-27.44-33.53-36.4" fill="#033045"/><path d="M498.62,92.26,325,170.3l-50.63,22.76-16.61,7.47-50.64,22.76-173.59,78a12.91,12.91,0,0,0-6.47,17L66,404.84A12.91,12.91,0,0,0,83,411.33l28.14-12.66,78.43,174.46a12.89,12.89,0,0,0,17,6.49L399.23,493h0l0,0,192.59-86.57a13.18,13.18,0,0,0,3.59-2.42,12.66,12.66,0,0,0,3.16-4.77,12.86,12.86,0,0,0-.28-9.86L519.92,214.92l28.15-12.66a12.86,12.86,0,0,0,6.76-7.19,12.79,12.79,0,0,0-.29-9.85L515.67,98.74a12.9,12.9,0,0,0-17-6.48" fill="#033045"/><path d="M264.9,225.6l28.3,62.94L112.33,369.86s0,0,0,0l-28.1,12.63-28.31-63Z" fill="#00f594"/></g><polygon points="134.67 388.1 205.21 545.03 220.68 545.03 376.93 474.79 303.78 312.08 134.67 388.1" fill="#00f594"/><polygon points="327.3 301.51 387.02 434.36 387.02 274.66 327.3 301.51" fill="#00f594"/><g clip-path="url(#clip-path)"><path d="M497.44,121.06l28.3,63-28.06,12.61-.11,0L316.72,278,288.42,215Z" fill="#00f594"/></g></g></svg>