<svg id="Capa_1" data-name="Capa 1" xmlns="http://www.w3.org/2000/svg" xmlns:xlink="http://www.w3.org/1999/xlink" viewBox="0 0 500 178.33"><defs><clipPath id="clip-path"><rect x="-934.24" y="-122.6" width="1788.44" height="1264.68" fill="none"/></clipPath></defs><g clip-path="url(#clip-path)"><path d="M442.25,29.21h-263c-4.43,0-8.08,3.78-8.64,8.67h1.12v4.36h-1.19V46.6h1.18V51h-1.17v4.36h1.15v4.36h-1.14V64h1.13v4.36h-1.12v4.37h1.11v4.36h-1.1v4.36h1.09v4.36h-1.08v4.36h1.07l0,4.37h-1v4.36h1v4.36h-1v4.36h1V112h-1v4.36h1v4.37h-1v3.37c0,.34,0,.67,0,1h.93v3.54a8.65,8.65,0,0,0,7.75,5.42h263c4.82,0,8.72-4.46,8.72-10V39.17c0-5.5-3.9-10-8.72-10" fill="#033045"/><path d="M115.55,58.25c-.13-.65-.5-1.59-2.29-2.27s-2.7-.22-3.22.18a2.17,2.17,0,0,0-.29.24c-2.67,2.54-3.3,10.58-3.09,16.94,4.54-4.78,9.59-11.5,8.89-15.09" fill="#00f594"/><path d="M148.32,102.3a1.59,1.59,0,0,1-.42.63,1.7,1.7,0,0,1-.47.32l-25.37,11.41h0L96.68,126.07a1.71,1.71,0,0,1-2.25-.86l-10.33-23-3.71,1.66a1.69,1.69,0,0,1-2.25-.85L73,91.65a1.7,1.7,0,0,1,.85-2.25L96.74,79.12c-5.71-.18-12.57-1.18-15.26-4.71a6.39,6.39,0,0,1-.65-6.49,6.36,6.36,0,0,1,4.79-4.41c5.49-1.08,13.26,5.24,17.63,9.34-.17-6,.26-16,4.73-19.39a7.28,7.28,0,0,1,10.9,4.14c.85,4.35-2.95,10.15-6.61,14.54l22.87-10.28a1.71,1.71,0,0,1,2.25.86l5.12,11.39a1.7,1.7,0,0,1,0,1.29,1.62,1.62,0,0,1-.42.63,1.86,1.86,0,0,1-.47.32L138,78l10.33,23a1.68,1.68,0,0,1,0,1.3m20.8,27.58a4.57,4.57,0,0,0,0-1.48l-.38-2.75-1.17.16-.59-4.19,1.17-.17-.59-4.2-1.16.17-.59-4.2,1.17-.16-.59-4.2-1.17.16-.58-4.2,1.16-.16-.58-4.2-1.17.16-.59-4.2,1.17-.16-.59-4.2-1.16.16-.59-4.2,1.17-.16-.59-4.2-1.17.17-.59-4.2,1.17-.17-.58-4.2-1.17.17-.59-4.2,1.17-.16-.59-4.2-1.17.16-.58-4.2,1.17-.16-.59-4.2-1.17.16-.59-4.2,1.17-.16-.58-4.2-1.17.17-.59-4.2,1.17-.17-.59-4.2-1.17.17-.58-4.2,1.17-.16-.5-3.57a4.42,4.42,0,0,0-.14-.63l-1.12.16-.3-2.17.23,0a4.72,4.72,0,0,0-4-1.36L56.12,43.09a4.72,4.72,0,0,0-4,5.33l13.21,94.5a4.71,4.71,0,0,0,5.32,4l94.5-13.21a4.72,4.72,0,0,0,3.29-2.08l-.23-1.64Z" fill="#00f594"/><path d="M86.27,66.84a2.47,2.47,0,0,0-1.26.64,4.33,4.33,0,0,0-1,1.65c-.68,1.79-.22,2.7.18,3.22,2.21,2.91,10.6,3.59,17.18,3.37-4.78-4.53-11.5-9.58-15.09-8.88" fill="#00f594"/><path d="M84.18,72.35c-.4-.52-.86-1.43-.18-3.22a4.2,4.2,0,0,1,1-1.64,2.42,2.42,0,0,1,1.26-.65c3.59-.7,10.31,4.35,15.09,8.88-6.58.22-15-.46-17.18-3.37M109.75,56.4a2.17,2.17,0,0,1,.29-.24c.52-.41,1.43-.86,3.22-.18s2.16,1.62,2.29,2.27c.7,3.59-4.35,10.31-8.89,15.09-.21-6.36.42-14.4,3.09-16.94M105.6,75.14l6.67-3c3.66-4.39,7.46-10.19,6.61-14.54A7.28,7.28,0,0,0,108,53.46c-4.47,3.36-4.9,13.39-4.73,19.39-4.37-4.1-12.14-10.42-17.63-9.34a6.36,6.36,0,0,0-4.79,4.42,6.38,6.38,0,0,0,.65,6.48c2.69,3.53,9.55,4.53,15.26,4.71l6.67-3Z" fill="#033045"/><path d="M122.21,110.86l-9.64-21.43,22.28-10,6.84,15.23,2.8,6.21Zm-3.1,1.4-5.84,2.62-16.44,7.39-9.64-21.44L106,92.37l3.45-1.55ZM84.25,98.44l-1.46.65-2.25,1-3.72-8.3,27.53-12.37,3.73,8.29L84.25,98.43h0M107.45,78,135,65.65l2.77,6.17,1,2.13L135,75.61h0l-10.4,4.68-13.42,6ZM138,78l3.71-1.67a1.86,1.86,0,0,0,.47-.32,1.62,1.62,0,0,0,.42-.63,1.7,1.7,0,0,0,0-1.29l-5.12-11.4a1.71,1.71,0,0,0-2.25-.85L112.27,72.14l-6.67,3-2.19,1-6.67,3L73.87,89.4A1.7,1.7,0,0,0,73,91.65L78.14,103a1.69,1.69,0,0,0,2.25.85l3.71-1.66,10.33,23a1.71,1.71,0,0,0,2.25.86l25.37-11.41h0l25.37-11.4a1.73,1.73,0,0,0,.89-1,1.65,1.65,0,0,0,0-1.29Z" fill="#033045"/></g><polygon points="144.49 100.85 122.21 110.86 112.57 89.43 122.21 110.86 144.49 100.85 141.69 94.63 144.49 100.85" fill="#033045"/><polygon points="109.47 90.82 106.02 92.37 109.47 90.82 119.11 112.26 109.47 90.82" fill="#033045"/><polygon points="87.19 100.83 87.19 100.83 96.83 122.27 113.27 114.88 96.83 122.27 87.19 100.83" fill="#033045"/><g clip-path="url(#clip-path)"><polygon points="135.02 75.61 135.01 75.61 135.02 75.61 138.72 73.95 137.76 71.82 138.72 73.95 135.02 75.61" fill="#033045"/></g><polygon points="111.18 86.33 124.6 80.29 111.18 86.33 107.45 78.03 111.18 86.33" fill="#033045"/><polygon points="76.82 91.81 80.54 100.1 82.8 99.09 80.54 100.1 76.82 91.81" fill="#033045"/><g clip-path="url(#clip-path)"><polyline points="84.25 98.43 108.08 87.72 104.35 79.43 76.82 91.81 80.55 100.1 82.8 99.09 84.25 98.44 84.25 98.43" fill="#fff"/></g><polygon points="106.02 92.37 87.19 100.83 96.83 122.27 113.27 114.88 119.11 112.26 109.47 90.82 106.02 92.37" fill="#fff"/><polygon points="144.49 100.85 141.69 94.63 134.85 79.41 112.57 89.43 122.21 110.86 144.49 100.85" fill="#fff"/><path d="M124.6,80.29,135,75.61h0l3.7-1.66-1-2.13L135,65.66,107.45,78l3.73,8.3Z" fill="#fff"/><path d="M223.31,73a5.35,5.35,0,0,0-.31-1.79,5.21,5.21,0,0,0-.91-1.61,5,5,0,0,0-1.46-1.15A4.07,4.07,0,0,0,218.7,68h-6.34V78h6.34a4.3,4.3,0,0,0,2-.43,4.51,4.51,0,0,0,1.45-1.12,5,5,0,0,0,.9-1.59,5.59,5.59,0,0,0,.31-1.86M200.77,59.9a1.45,1.45,0,0,1,.33-1,1.25,1.25,0,0,1,1-.38h19.13a13,13,0,0,1,3.89.57,13.19,13.19,0,0,1,3.35,1.57,13.68,13.68,0,0,1,2.76,2.4,15.32,15.32,0,0,1,3.38,6.4,14.69,14.69,0,0,1,.45,3.61,14.94,14.94,0,0,1-1,5.27,14.51,14.51,0,0,1-2.77,4.58A14.2,14.2,0,0,1,227,86.17a12.7,12.7,0,0,1-5.57,1.27h-9.07v14.25q0,1.29-1.38,1.29h-8.89a1.4,1.4,0,0,1-1-.31,1.24,1.24,0,0,1-.36-1Z" fill="#fff"/><path d="M239.12,67.17a2.15,2.15,0,0,1,.21-1,2,2,0,0,1,.55-.69,2.43,2.43,0,0,1,.78-.41,2.9,2.9,0,0,1,.86-.13H246a1.58,1.58,0,0,1,1.19.45,3.87,3.87,0,0,1,.77,1.14,10.31,10.31,0,0,1,.55,1.52,14.08,14.08,0,0,0,.57,1.62l1.78-2a13.21,13.21,0,0,1,1.9-1.7A9.64,9.64,0,0,1,255,64.82a7.92,7.92,0,0,1,2.77-.46,15.69,15.69,0,0,1,2.89.24,12.44,12.44,0,0,1,2.41.7,14,14,0,0,1,2.26,1.19c.75.48,1.56,1,2.44,1.67a2.12,2.12,0,0,1,1.29,1.77,3.13,3.13,0,0,1-.51,1.53l-2.72,4.64a2.37,2.37,0,0,1-2,1.16,3.55,3.55,0,0,1-1.35-.32,9.49,9.49,0,0,0-2.62-1.88,7.13,7.13,0,0,0-3-.61,5.9,5.9,0,0,0-2.06.33,5.45,5.45,0,0,0-1.6.93,9.27,9.27,0,0,0-1.35,1.43c-.41.56-.83,1.18-1.25,1.86v21.68a2.41,2.41,0,0,1-.56,1.72,2.45,2.45,0,0,1-1.84.58h-6.73a2.05,2.05,0,0,1-2.34-2.3Z" fill="#fff"/><path d="M323.37,73.49a5.89,5.89,0,0,0-2.26.46,8.54,8.54,0,0,0-2.05,1.25A11,11,0,0,0,317.34,77a10.31,10.31,0,0,0-1.24,2h15.29A17.65,17.65,0,0,0,330,76.81a9.5,9.5,0,0,0-1.68-1.73,7.08,7.08,0,0,0-2.15-1.17,8.65,8.65,0,0,0-2.83-.42m14.4,24.94a19.92,19.92,0,0,1-5.93,3.79,18,18,0,0,1-7,1.36,20.38,20.38,0,0,1-14.16-5.64,19.92,19.92,0,0,1-4.38-6.25,18.92,18.92,0,0,1-1.61-7.81,20.16,20.16,0,0,1,2.47-9.73,19.57,19.57,0,0,1,2.87-4,18.17,18.17,0,0,1,3.79-3.1,19,19,0,0,1,4.55-2,18.32,18.32,0,0,1,5.18-.72,17.64,17.64,0,0,1,4.82.66,18.58,18.58,0,0,1,8.14,4.73,19.41,19.41,0,0,1,2.94,3.67,17.47,17.47,0,0,1,1.9,4.25,16.14,16.14,0,0,1,.67,4.65c0,1,0,1.89,0,2.55a2.86,2.86,0,0,1-.47,1.57,2.25,2.25,0,0,1-1.39.81,13.67,13.67,0,0,1-2.86.22H315.74A7.33,7.33,0,0,0,317,90.68a7.73,7.73,0,0,0,2.11,2,8.49,8.49,0,0,0,2.54,1.09,10.76,10.76,0,0,0,2.55.33,11.29,11.29,0,0,0,2.21-.23,15.44,15.44,0,0,0,2.2-.59,12.48,12.48,0,0,0,1.95-.87,6.77,6.77,0,0,0,1.42-1,6.36,6.36,0,0,1,.83-.59,1.45,1.45,0,0,1,.73-.19,1.42,1.42,0,0,1,.79.27,6.13,6.13,0,0,1,.92.77l3.17,3.6a2,2,0,0,1,.42.7,2.35,2.35,0,0,1,.09.64,1.68,1.68,0,0,1-.33,1,3.75,3.75,0,0,1-.78.76M281.78,84a10.93,10.93,0,0,0,.62,3.7,8.86,8.86,0,0,0,1.75,3,8.3,8.3,0,0,0,2.74,2,8.41,8.41,0,0,0,3.55.73,9.35,9.35,0,0,0,3.72-.73,9.53,9.53,0,0,0,3-2,9.11,9.11,0,0,0,2-3,9.5,9.5,0,0,0,.72-3.7,9.39,9.39,0,0,0-.72-3.65,9.47,9.47,0,0,0-5-5.14,9,9,0,0,0-3.72-.76,8.13,8.13,0,0,0-3.55.76,8.41,8.41,0,0,0-2.74,2.08,9.43,9.43,0,0,0-1.75,3.06,10.8,10.8,0,0,0-.62,3.65m29.49,16.77a2.65,2.65,0,0,1-.18,1,1.41,1.41,0,0,1-.59.73,1.5,1.5,0,0,1-.78.42,4.06,4.06,0,0,1-.78.09H303a2.66,2.66,0,0,1-1-.16,1.58,1.58,0,0,1-.63-.47,2.66,2.66,0,0,1-.4-.73c-.11-.29-.22-.6-.34-.94l-.39-1.35a18.48,18.48,0,0,1-1.84,1.59,14.28,14.28,0,0,1-2.28,1.39,14.13,14.13,0,0,1-2.67,1,11.9,11.9,0,0,1-2.94.37,19.46,19.46,0,0,1-18.84-14.39A19.9,19.9,0,0,1,271,84a19.5,19.5,0,0,1,1.52-7.74A20,20,0,0,1,276.69,70a19.39,19.39,0,0,1,13.84-5.67,13.53,13.53,0,0,1,3.45.42,13.22,13.22,0,0,1,2.94,1.14,11.58,11.58,0,0,1,2.41,1.72,13.24,13.24,0,0,1,1.88,2.17l.87-2.73.5-1.21a2.16,2.16,0,0,1,.42-.69,1.1,1.1,0,0,1,.55-.3,4.5,4.5,0,0,1,.93-.07h4.46a4.06,4.06,0,0,1,.78.09,1.5,1.5,0,0,1,.78.42,1.81,1.81,0,0,1,.59.75,2.37,2.37,0,0,1,.18,1Z" fill="#00f594"/><path d="M348,65.49a1.84,1.84,0,0,1,.82-.42,4.12,4.12,0,0,1,.83-.09h4.52a2,2,0,0,1,1.58.72,2.79,2.79,0,0,1,.44.75c.11.28.21.57.31.86l.63,2.63A9.45,9.45,0,0,1,358.46,68a9,9,0,0,1,2.12-1.79,12.24,12.24,0,0,1,3.07-1.33,14.88,14.88,0,0,1,4.18-.52,14.54,14.54,0,0,1,3.43.37,10.7,10.7,0,0,1,2.81,1.11,10.51,10.51,0,0,1,2.32,1.79,16.85,16.85,0,0,1,2,2.43,9.19,9.19,0,0,1,1.69-1.94,13.87,13.87,0,0,1,2.68-1.85,17,17,0,0,1,3.47-1.37,15,15,0,0,1,4.07-.54,12.87,12.87,0,0,1,6,1.31,12.17,12.17,0,0,1,4.24,3.59,15.79,15.79,0,0,1,2.53,5.3,24.16,24.16,0,0,1,.84,6.48v19.61a2.6,2.6,0,0,1-.5,1.72,1.94,1.94,0,0,1-1.57.58h-6.92a2.68,2.68,0,0,1-1.76-.43,2.27,2.27,0,0,1-.48-1.69V81.07a7,7,0,0,0-.41-2.4,5.86,5.86,0,0,0-1.12-1.93,5,5,0,0,0-1.75-1.29,5.51,5.51,0,0,0-2.29-.46,5.29,5.29,0,0,0-2.16.45,5.74,5.74,0,0,0-3,3.16,6.36,6.36,0,0,0-.47,2.47v19.61a2.59,2.59,0,0,1-.49,1.72,2,2,0,0,1-1.57.58h-6.92a2.69,2.69,0,0,1-1.77-.43,2.27,2.27,0,0,1-.48-1.69V81.07a7.45,7.45,0,0,0-.37-2.4,5.78,5.78,0,0,0-1.08-1.93,5,5,0,0,0-1.7-1.29,5.34,5.34,0,0,0-2.26-.46,5.43,5.43,0,0,0-2.12.43,6.1,6.1,0,0,0-1.85,1.23,6.88,6.88,0,0,0-1.38,1.9,6.39,6.39,0,0,0-.64,2.46v19.76a2.79,2.79,0,0,1-.2,1,1.61,1.61,0,0,1-.58.78,2.87,2.87,0,0,1-.73.33,3.2,3.2,0,0,1-.8.09h-6.76a2.11,2.11,0,0,1-2.43-2.3V67.2a2.32,2.32,0,0,1,.25-1,1.81,1.81,0,0,1,.71-.74Z" fill="#fff"/><path d="M409.83,67.29a2.59,2.59,0,0,1,.54-1.64,2,2,0,0,1,1.68-.69h6.86a2.12,2.12,0,0,1,.77.16,2.65,2.65,0,0,1,.78.48,3.17,3.17,0,0,1,.62.74,1.77,1.77,0,0,1,.25,1v33.39a2.23,2.23,0,0,1-.63,1.72,2.54,2.54,0,0,1-1.79.58h-6.86a2,2,0,0,1-2.22-2.3Z" fill="#fff"/><path d="M409.83,52.14a2.43,2.43,0,0,1,.54-1.78,2.33,2.33,0,0,1,1.68-.52H419a2.6,2.6,0,0,1,1.69.52,2.18,2.18,0,0,1,.64,1.78V58a2.13,2.13,0,0,1-.16.78,3.34,3.34,0,0,1-.47.81,2.5,2.5,0,0,1-.73.64,1.9,1.9,0,0,1-1,.26h-6.95q-2.22,0-2.22-2.49Z" fill="#00f594"/></svg>